# xmcd
#
# Track frame offsets: 
#        182
#        25820
#        36230
#        46402
#        57610
#        67805
#        83552
#        106107
#        123297
#        134855
#        157360
#        176190
#
# Disc length: 2576 seconds
#
# Revision: 3
# Processed by: cddbd v1.5.2PL0 Copyright (c) Steve Scherf et al.
# Submitted via: ExactAudioCopy v1.0b3
#
DISCID=aa0a0e0c
DTITLE=Eric Clapton - Legends - Eric Clapton
DYEAR=1999
DGENRE=Blues
TTITLE0=She's so respectable
TTITLE1=Got to hurryFor your love
TTITLE2=A certain girl
TTITLE3=For your love
TTITLE4=I wish I would
TTITLE5=Louise
TTITLE6=Five long years
TTITLE7=Early in the morning
TTITLE8=Pounds and stoms
TTITLE9=The first time I met the blues
TTITLE10=Stormy monday blues
TTITLE11=Big Boss Man
EXTD=YEAR: 1999
EXTT0=
EXTT1=
EXTT2=
EXTT3=
EXTT4=
EXTT5=
EXTT6=
EXTT7=
EXTT8=
EXTT9=
EXTT10=
EXTT11=
PLAYORDER=
